<svg width="48" height="48" viewBox="0 0 48 48" fill="none" xmlns="http://www.w3.org/2000/svg">
<rect width="48" height="48" rx="13.44" fill="#D1D1D1"/>
<path fill-rule="evenodd" clip-rule="evenodd" d="M23.9996 12.0706C22.4177 10.4887 20.2721 9.59998 18.0349 9.59998C15.7977 9.59998 13.6522 10.4887 12.0703 12.0706C10.4883 13.6526 9.59961 15.7981 9.59961 18.0353C9.59961 20.2725 10.4638 22.418 12.0457 24C10.4638 25.5819 9.59961 27.7275 9.59961 29.9647C9.59961 32.2018 10.4883 34.3474 12.0703 35.9293C13.6522 37.5113 15.7977 38.4 18.0349 38.4C20.2721 38.4 22.4177 37.5113 23.9996 35.9293C25.5815 37.5113 27.7271 38.4 29.9643 38.4C32.2015 38.4 34.347 37.5113 35.929 35.9293C37.5109 34.3474 38.3996 32.2018 38.3996 29.9647C38.3996 27.7275 37.5109 25.5819 35.929 24C37.5109 22.418 38.3996 20.2725 38.3996 18.0353C38.3996 15.7981 37.5109 13.6526 35.929 12.0706C34.347 10.4887 32.2015 9.59998 29.9643 9.59998C27.7271 9.59998 25.5815 10.4887 23.9996 12.0706ZM29.9643 18.0353C23.9996 12.0706 23.9751 12.0706 18.0104 18.0353C12.058 23.9877 12.0702 23.9999 17.9983 29.928L18.0349 29.9646C23.9996 35.9293 23.9996 35.9293 29.9643 29.9647C35.929 24 35.929 24 29.9643 18.0353Z" fill="#3D3D3D"/>
</svg>
