<svg width="23" height="18" viewBox="0 0 23 18" fill="none" xmlns="http://www.w3.org/2000/svg">
<path d="M5.50009 4.04802C4.97432 4.04802 4.5481 4.47423 4.5481 5C4.5481 5.52577 4.97432 5.95198 5.50009 5.95198V4.04802ZM9.50018 5.95198C10.0259 5.95198 10.4522 5.52577 10.4522 5C10.4522 4.47423 10.0259 4.04802 9.50018 4.04802V5.95198ZM20.4934 11.998L20.5477 12.9484L20.5515 12.9482L20.4934 11.998ZM21.4984 11.065L22.4481 11.1313L22.4486 11.1244L21.4984 11.065ZM21.4984 6.935L22.4486 6.87561L22.448 6.86677L21.4984 6.935ZM20.4934 6.002L20.5515 5.05178L20.5493 5.05166L20.4934 6.002ZM19.3284 2.172L18.655 2.84488L18.6557 2.84558L19.3284 2.172ZM2.67203 2.172L3.34489 2.84545L3.34546 2.84488L2.67203 2.172ZM2.67203 15.828L3.34546 15.1551L3.34489 15.1545L2.67203 15.828ZM19.3284 15.828L18.6557 15.1544L18.655 15.1551L19.3284 15.828ZM17.4914 8.04802C16.9656 8.04802 16.5394 8.47423 16.5394 9C16.5394 9.52577 16.9656 9.95199 17.4914 9.95199V8.04802ZM17.5014 9.95199C18.0271 9.95199 18.4533 9.52577 18.4533 9C18.4533 8.47423 18.0271 8.04802 17.5014 8.04802V9.95199ZM5.50009 5.95198H9.50018V4.04802H5.50009V5.95198ZM20.3334 5.04802H17.7314V6.95198H20.3334V5.04802ZM17.7314 5.04802C15.4882 5.04802 13.5483 6.75202 13.5483 9H15.4523C15.4523 7.93398 16.4044 6.95198 17.7314 6.95198V5.04802ZM13.5483 9C13.5483 11.248 15.4892 12.952 17.7304 12.952V11.048C16.4054 11.048 15.4523 10.066 15.4523 9H13.5483ZM17.7304 12.952H20.3334V11.048H17.7304V12.952ZM20.3334 12.952C20.4042 12.952 20.4788 12.9524 20.5477 12.9484L20.4391 11.0476C20.4428 11.0474 20.4405 11.0476 20.4223 11.0478C20.403 11.048 20.3773 11.048 20.3334 11.048V12.952ZM20.5515 12.9482C21.512 12.8895 22.376 12.1633 22.4481 11.1313L20.5488 10.9987C20.5494 10.9897 20.5538 10.9943 20.5377 11.0093C20.5207 11.025 20.4869 11.0446 20.4354 11.0478L20.5515 12.9482ZM22.4486 11.1244C22.4529 11.0552 22.4524 10.9792 22.4524 10.917H20.5485C20.5485 10.9575 20.5484 10.9806 20.5483 10.9977C20.5481 11.014 20.5478 11.0132 20.5483 11.0056L22.4486 11.1244ZM22.4524 10.917V7.083H20.5485V10.917H22.4524ZM22.4524 7.083C22.4524 7.02078 22.4529 6.94484 22.4486 6.87562L20.5483 6.99438C20.5478 6.98679 20.5481 6.98604 20.5483 7.00232C20.5484 7.01942 20.5485 7.0425 20.5485 7.083H22.4524ZM22.448 6.86677C22.374 5.83787 21.5137 5.11059 20.5515 5.05179L20.4354 6.95221C20.4867 6.95535 20.5202 6.97485 20.5371 6.99051C20.5531 7.00545 20.5494 7.01076 20.5489 7.00323L22.448 6.86677ZM20.5493 5.05166C20.4802 5.04759 20.4031 5.04802 20.3334 5.04802V6.95198C20.3773 6.95198 20.4033 6.952 20.4227 6.95219C20.4415 6.95237 20.443 6.95266 20.4375 6.95234L20.5493 5.05166ZM21.4166 5.96037C21.3381 4.07735 21.0908 2.58674 20.0011 1.49842L18.6557 2.84558C19.184 3.37326 19.4367 4.17865 19.5143 6.03963L21.4166 5.96037ZM20.0018 1.49912C19.2099 0.706534 18.2111 0.363709 17.0162 0.20301C15.8488 0.0459918 14.3589 0.048015 12.5002 0.048015V1.95199C14.4127 1.95199 15.7514 1.95401 16.7624 2.08999C17.7461 2.22229 18.2759 2.46547 18.655 2.84488L20.0018 1.49912ZM12.5002 0.048015H9.50018V1.95199H12.5002V0.048015ZM9.50018 0.048015C7.64156 0.048015 6.15167 0.0459918 4.98419 0.20301C3.78934 0.363709 2.79052 0.706534 1.99859 1.49912L3.34546 2.84488C3.72455 2.46547 4.25427 2.22229 5.23797 2.08999C6.24904 1.95401 7.58771 1.95199 9.50018 1.95199V0.048015ZM1.99917 1.49855C1.20655 2.29047 0.863718 3.28927 0.703014 4.4841C0.545992 5.65156 0.548015 7.14142 0.548015 9H2.45199C2.45199 7.08758 2.45401 5.74894 2.58999 4.7379C2.7223 3.75423 2.96547 3.22453 3.34489 2.84545L1.99917 1.49855ZM0.548015 9C0.548015 10.8586 0.545992 12.3484 0.703014 13.5159C0.863718 14.7107 1.20655 15.7095 1.99917 16.5014L3.34489 15.1545C2.96547 14.7755 2.7223 14.2458 2.58999 13.2621C2.45401 12.2511 2.45199 10.9124 2.45199 9H0.548015ZM1.99859 16.5009C2.79052 17.2935 3.78934 17.6363 4.98419 17.797C6.15167 17.954 7.64156 17.952 9.50018 17.952V16.048C7.58771 16.048 6.24904 16.046 5.23797 15.91C4.25427 15.7777 3.72456 15.5345 3.34546 15.1551L1.99859 16.5009ZM9.50018 17.952H12.5002V16.048H9.50018V17.952ZM12.5002 17.952C14.3589 17.952 15.8488 17.954 17.0162 17.797C18.2111 17.6363 19.2099 17.2935 20.0018 16.5009L18.655 15.1551C18.2759 15.5345 17.7461 15.7777 16.7624 15.91C15.7514 16.046 14.4127 16.048 12.5002 16.048V17.952ZM20.0011 16.5016C21.0907 15.4134 21.3391 13.9232 21.4166 12.0391L19.5142 11.9609C19.4377 13.8208 19.1841 14.6266 18.6557 15.1544L20.0011 16.5016ZM17.4914 9.95199H17.5014V8.04802H17.4914V9.95199Z" fill="white"/>
</svg>
